<svg width="16" height="17" viewBox="0 0 16 17" fill="none" xmlns="http://www.w3.org/2000/svg">
<g clip-path="url(#clip0_1017_7034)">
<path d="M8.00003 0.5C6.27601 0.5 4.87378 1.90261 4.87378 3.62663V5.24646C4.87378 6.9706 6.27601 8.37322 8.00003 8.37322C9.72417 8.37322 11.1263 6.9706 11.1263 5.24646V3.62663C11.1263 1.90261 9.72417 0.5 8.00003 0.5Z" fill="white"/>
<path d="M14.8944 12.4478C13.8933 10.7418 12.2932 9.47709 10.3888 8.8865C10.3447 8.87281 10.2969 8.88445 10.264 8.91697C9.37814 9.79043 8.27735 10.4719 8.00215 10.6365C7.70839 10.4487 6.47103 9.64221 5.73542 8.91697C5.70265 8.88445 5.65452 8.87281 5.61062 8.8865C3.706 9.47722 2.10601 10.742 1.10532 12.4479C1.08241 12.487 1.08241 12.5355 1.10532 12.5745C2.52636 14.996 5.16813 16.5003 7.99972 16.5003C10.8314 16.5003 13.4733 14.996 14.8944 12.5745C14.9174 12.5354 14.9174 12.4869 14.8944 12.4478ZM12.2517 13.3804C12.2517 13.4494 12.186 13.5021 12.1172 13.5021H11.2705C11.2015 13.5021 11.1262 13.5614 11.1262 13.6305V14.5062C11.1262 14.575 11.0894 14.6276 11.0204 14.6276H10.2599C10.1909 14.6276 10.1259 14.575 10.1259 14.5062V13.6305C10.1257 13.5615 10.0785 13.5021 10.0096 13.5021H9.12636C9.05737 13.5021 9.00029 13.4493 9.00029 13.3804V12.6265C9.00029 12.5575 9.05737 12.5018 9.12636 12.5018H10.0096C10.0785 12.5018 10.1257 12.4455 10.1257 12.3764V11.4997C10.1257 11.4307 10.1907 11.3763 10.2597 11.3763H11.0119C11.0808 11.3763 11.1261 11.4307 11.1261 11.4997V12.379C11.1261 12.4481 11.1929 12.5017 11.262 12.5017H12.1172C12.186 12.5017 12.2517 12.5601 12.2517 12.6291V13.3804Z" fill="white"/>
</g>
<defs>
<clipPath id="clip0_1017_7034">
<rect width="16" height="16" fill="white" transform="translate(0 0.5)"/>
</clipPath>
</defs>
</svg>
