<svg width="16" height="17" viewBox="0 0 16 17" fill="none" xmlns="http://www.w3.org/2000/svg">
<g clip-path="url(#clip0_1017_2675)">
<rect width="16" height="16" transform="translate(0 0.5)" fill="#18385C"/>
<path d="M13.0002 16.4998C12.8668 16.5078 12.7332 16.4874 12.6083 16.44C12.4833 16.3926 12.3698 16.3192 12.2753 16.2247C12.1808 16.1302 12.1074 16.0167 12.06 15.8917C12.0126 15.7668 11.9922 15.6332 12.0002 15.4997V6.49975C11.9922 6.36634 12.0126 6.23274 12.06 6.10778C12.1074 5.98282 12.1808 5.86934 12.2753 5.77483C12.3698 5.68032 12.4833 5.60694 12.6083 5.55952C12.7332 5.5121 12.8668 5.49173 13.0002 5.49975H15.0002C15.1337 5.49173 15.2672 5.5121 15.3922 5.55952C15.5172 5.60694 15.6306 5.68032 15.7252 5.77483C15.8197 5.86934 15.8931 5.98282 15.9405 6.10778C15.9879 6.23274 16.0083 6.36634 16.0002 6.49975V15.4997C16.0083 15.6332 15.9879 15.7668 15.9405 15.8917C15.8931 16.0167 15.8197 16.1302 15.7252 16.2247C15.6306 16.3192 15.5172 16.3926 15.3922 16.44C15.2672 16.4874 15.1337 16.5078 15.0002 16.4998H13.0002ZM7.00024 16.4998C6.86679 16.5079 6.73312 16.4877 6.60808 16.4403C6.48305 16.393 6.3695 16.3196 6.27496 16.225C6.18042 16.1305 6.10704 16.0169 6.05968 15.8919C6.01232 15.7669 5.99206 15.6332 6.00024 15.4997V1.49975C5.99222 1.36634 6.01259 1.23274 6.06001 1.10778C6.10743 0.982819 6.18081 0.869339 6.27532 0.774831C6.36983 0.680323 6.48331 0.606938 6.60827 0.55952C6.73323 0.512102 6.86682 0.49173 7.00024 0.49975H9.00024C9.13365 0.49173 9.26725 0.512102 9.39221 0.55952C9.51717 0.606938 9.63065 0.680323 9.72516 0.774831C9.81966 0.869339 9.89305 0.982819 9.94047 1.10778C9.98789 1.23274 10.0083 1.36634 10.0002 1.49975V15.4997C10.0084 15.6332 9.98816 15.7669 9.9408 15.8919C9.89344 16.0169 9.82006 16.1305 9.72552 16.225C9.63097 16.3196 9.51743 16.393 9.39239 16.4403C9.26736 16.4877 9.13369 16.5079 9.00024 16.4998H7.00024ZM1.00024 16.4998C0.866825 16.5078 0.733227 16.4874 0.608267 16.44C0.483307 16.3926 0.369827 16.3192 0.275319 16.2247C0.180811 16.1302 0.107426 16.0167 0.060008 15.8917C0.01259 15.7668 -0.00778171 15.6332 0.000237932 15.4997V11.4997C-0.00778171 11.3663 0.01259 11.2327 0.060008 11.1078C0.107426 10.9828 0.180811 10.8693 0.275319 10.7748C0.369827 10.6803 0.483307 10.6069 0.608267 10.5595C0.733227 10.5121 0.866825 10.4917 1.00024 10.4997H3.00024C3.13361 10.4919 3.26714 10.5124 3.39202 10.5598C3.51691 10.6073 3.63032 10.6807 3.7248 10.7752C3.81927 10.8697 3.89266 10.9831 3.94014 11.108C3.98761 11.2328 4.0081 11.3664 4.00024 11.4997V15.4997C4.00826 15.6332 3.98789 15.7668 3.94047 15.8917C3.89305 16.0167 3.81966 16.1302 3.72516 16.2247C3.63065 16.3192 3.51717 16.3926 3.39221 16.44C3.26725 16.4874 3.13365 16.5078 3.00024 16.4998H1.00024Z" fill="white"/>
</g>
<defs>
<clipPath id="clip0_1017_2675">
<rect width="16" height="16" fill="white" transform="translate(0 0.5)"/>
</clipPath>
</defs>
</svg>
