<svg width="22" height="21" viewBox="0 0 22 21" fill="none" xmlns="http://www.w3.org/2000/svg">
<path d="M4.54488 8.962C6.21253 12.2228 8.86508 14.8753 12.1259 16.543L14.6569 14.012C14.8074 13.8614 14.9969 13.7558 15.2041 13.707C15.4113 13.6583 15.628 13.6683 15.8299 13.736C17.1553 14.1716 18.5417 14.393 19.9369 14.392C20.2416 14.3931 20.5335 14.5146 20.7489 14.73C20.9643 14.9454 21.0858 15.2373 21.0869 15.542V19.557C21.0858 19.8617 20.9643 20.1536 20.7489 20.369C20.5335 20.5844 20.2416 20.7059 19.9369 20.707C17.3686 20.7071 14.8254 20.2014 12.4526 19.2186C10.0798 18.2358 7.92376 16.7952 6.1077 14.9792C4.29164 13.1631 2.85109 11.0071 1.8683 8.6343C0.885519 6.26147 0.379752 3.7183 0.379883 1.15C0.380937 0.845326 0.502436 0.553431 0.717875 0.337992C0.933313 0.122553 1.22521 0.00105425 1.52988 0H5.55688C5.86156 0.00105425 6.15345 0.122553 6.36889 0.337992C6.58433 0.553431 6.70583 0.845326 6.70688 1.15C6.70492 2.54524 6.92639 3.93179 7.36288 5.257C7.42863 5.45975 7.43699 5.67673 7.38704 5.88393C7.33709 6.09114 7.23078 6.28048 7.07988 6.431L4.54488 8.962Z" fill="#FF692E"/>
</svg>
