<svg width="34" height="34" viewBox="0 0 34 34" fill="none" xmlns="http://www.w3.org/2000/svg">
<path d="M17 34C26.3888 34 34 26.3888 34 17C34 7.61116 26.3888 0 17 0C7.61116 0 0 7.61116 0 17C0 26.3888 7.61116 34 17 34Z" fill="#E62E05"/>
<path d="M14 8L12.17 10H9C8.47005 10.0016 7.96227 10.2128 7.58753 10.5875C7.2128 10.9623 7.00158 11.4701 7 12V24C7.00158 24.5299 7.2128 25.0377 7.58753 25.4125C7.96227 25.7872 8.47005 25.9984 9 26H25C25.5299 25.9984 26.0377 25.7872 26.4125 25.4125C26.7872 25.0377 26.9984 24.5299 27 24V12C26.9984 11.4701 26.7872 10.9623 26.4125 10.5875C26.0377 10.2128 25.5299 10.0016 25 10H21.83L20 8H14ZM17 23C16.0111 23 15.0444 22.7068 14.2221 22.1573C13.3999 21.6079 12.759 20.827 12.3806 19.9134C12.0022 18.9998 11.9031 17.9945 12.0961 17.0245C12.289 16.0546 12.7652 15.1637 13.4645 14.4645C14.1637 13.7652 15.0546 13.289 16.0245 13.0961C16.9945 12.9031 17.9998 13.0022 18.9134 13.3806C19.827 13.759 20.6079 14.3999 21.1573 15.2221C21.7068 16.0444 22 17.0111 22 18C22 19.3261 21.4732 20.5979 20.5355 21.5355C19.5979 22.4732 18.3261 23 17 23Z" fill="white"/>
</svg>
