<svg width="148" height="44" viewBox="0 0 148 44" fill="none" xmlns="http://www.w3.org/2000/svg">
<g filter="url(#filter0_d_1202_682)">
<rect x="2" y="1" width="144" height="40" rx="8" fill="white"/>
<rect x="2.5" y="1.5" width="143" height="39" rx="7.5" stroke="#D0D5DD"/>
<path d="M31.3333 12.6667V16M24.6667 12.6667V16M20.5 19.3334H35.5M22.1667 14.3334H33.8333C34.7538 14.3334 35.5 15.0795 35.5 16V27.6667C35.5 28.5872 34.7538 29.3334 33.8333 29.3334H22.1667C21.2462 29.3334 20.5 28.5872 20.5 27.6667V16C20.5 15.0795 21.2462 14.3334 22.1667 14.3334Z" stroke="#344054" stroke-width="1.67" stroke-linecap="round" stroke-linejoin="round"/>
<path d="M52.6719 18.4929C52.6188 18.0223 52.4001 17.6577 52.0156 17.3991C51.6312 17.1373 51.1473 17.0064 50.5639 17.0064C50.1463 17.0064 49.785 17.0727 49.4801 17.2053C49.1752 17.3345 48.9382 17.5135 48.7692 17.7422C48.6035 17.9676 48.5206 18.2244 48.5206 18.5128C48.5206 18.7547 48.5769 18.9635 48.6896 19.1392C48.8056 19.3149 48.9564 19.4624 49.142 19.5817C49.331 19.6977 49.5331 19.7955 49.7486 19.875C49.964 19.9512 50.1712 20.0142 50.37 20.0639L51.3643 20.3224C51.6892 20.402 52.0223 20.5097 52.3636 20.6456C52.705 20.7815 53.0215 20.9605 53.3132 21.1825C53.6049 21.4046 53.8402 21.6797 54.0192 22.0078C54.2015 22.3359 54.2926 22.7287 54.2926 23.1861C54.2926 23.7628 54.1435 24.2749 53.8452 24.7223C53.5502 25.1697 53.121 25.5227 52.5575 25.7812C51.9974 26.0398 51.3196 26.169 50.5241 26.169C49.7618 26.169 49.1023 26.0481 48.5455 25.8061C47.9886 25.5642 47.5528 25.2211 47.2379 24.777C46.9231 24.3295 46.7491 23.7992 46.7159 23.1861H48.2571C48.2869 23.554 48.4063 23.8606 48.6151 24.1058C48.8272 24.3478 49.0973 24.5284 49.4254 24.6477C49.7569 24.7637 50.1198 24.8217 50.5142 24.8217C50.9484 24.8217 51.3345 24.7538 51.6726 24.6179C52.014 24.4787 52.2824 24.2865 52.478 24.0412C52.6735 23.7926 52.7713 23.5026 52.7713 23.1712C52.7713 22.8696 52.6851 22.6226 52.5128 22.4304C52.3438 22.2382 52.1134 22.0791 51.8217 21.9531C51.5334 21.8272 51.2069 21.7161 50.8423 21.62L49.6392 21.2919C48.8239 21.0698 48.1776 20.7434 47.7003 20.3125C47.2263 19.8816 46.9893 19.3116 46.9893 18.6023C46.9893 18.0156 47.1484 17.5036 47.4666 17.0661C47.7848 16.6286 48.2157 16.2888 48.7592 16.0469C49.3028 15.8016 49.916 15.679 50.5987 15.679C51.2881 15.679 51.8963 15.8 52.4233 16.0419C52.9536 16.2839 53.3712 16.617 53.6761 17.0412C53.9811 17.4621 54.1402 17.946 54.1534 18.4929H52.6719ZM59.3002 26.1541C58.5479 26.1541 57.8999 25.9934 57.3564 25.6719C56.8161 25.3471 56.3985 24.8913 56.1035 24.3047C55.8118 23.7147 55.666 23.0237 55.666 22.2315C55.666 21.4493 55.8118 20.7599 56.1035 20.1634C56.3985 19.5668 56.8095 19.1011 57.3365 18.7663C57.8668 18.4316 58.4866 18.2642 59.1958 18.2642C59.6267 18.2642 60.0443 18.3355 60.4487 18.478C60.853 18.6205 61.216 18.8442 61.5375 19.1491C61.859 19.4541 62.1125 19.8501 62.2981 20.3374C62.4837 20.8213 62.5765 21.4096 62.5765 22.1023V22.6293H56.5062V21.5156H61.1199C61.1199 21.1245 61.0403 20.7782 60.8812 20.4766C60.7221 20.1716 60.4984 19.9313 60.21 19.7557C59.925 19.58 59.5903 19.4922 59.2058 19.4922C58.7882 19.4922 58.4236 19.5949 58.112 19.8004C57.8038 20.0026 57.5652 20.2678 57.3961 20.5959C57.2304 20.9207 57.1475 21.2737 57.1475 21.6548V22.5249C57.1475 23.0353 57.237 23.4695 57.416 23.8274C57.5983 24.1854 57.8519 24.4588 58.1767 24.6477C58.5015 24.8333 58.881 24.9261 59.3152 24.9261C59.5969 24.9261 59.8538 24.8864 60.0858 24.8068C60.3178 24.724 60.5183 24.6013 60.6873 24.4389C60.8564 24.2765 60.9856 24.076 61.0751 23.8374L62.4821 24.0909C62.3694 24.5052 62.1672 24.8681 61.8755 25.1797C61.5872 25.4879 61.2243 25.7282 60.7868 25.9006C60.3526 26.0696 59.8571 26.1541 59.3002 26.1541ZM65.7124 15.8182V26H64.2259V15.8182H65.7124ZM71.0034 26.1541C70.251 26.1541 69.603 25.9934 69.0595 25.6719C68.5192 25.3471 68.1016 24.8913 67.8066 24.3047C67.515 23.7147 67.3691 23.0237 67.3691 22.2315C67.3691 21.4493 67.515 20.7599 67.8066 20.1634C68.1016 19.5668 68.5126 19.1011 69.0396 18.7663C69.5699 18.4316 70.1897 18.2642 70.899 18.2642C71.3298 18.2642 71.7475 18.3355 72.1518 18.478C72.5562 18.6205 72.9191 18.8442 73.2406 19.1491C73.5621 19.4541 73.8156 19.8501 74.0012 20.3374C74.1868 20.8213 74.2797 21.4096 74.2797 22.1023V22.6293H68.2093V21.5156H72.823C72.823 21.1245 72.7434 20.7782 72.5843 20.4766C72.4252 20.1716 72.2015 19.9313 71.9132 19.7557C71.6281 19.58 71.2934 19.4922 70.9089 19.4922C70.4913 19.4922 70.1267 19.5949 69.8152 19.8004C69.5069 20.0026 69.2683 20.2678 69.0993 20.5959C68.9335 20.9207 68.8507 21.2737 68.8507 21.6548V22.5249C68.8507 23.0353 68.9402 23.4695 69.1191 23.8274C69.3014 24.1854 69.555 24.4588 69.8798 24.6477C70.2046 24.8333 70.5841 24.9261 71.0183 24.9261C71.3 24.9261 71.5569 24.8864 71.7889 24.8068C72.0209 24.724 72.2214 24.6013 72.3904 24.4389C72.5595 24.2765 72.6887 24.076 72.7782 23.8374L74.1852 24.0909C74.0725 24.5052 73.8703 24.8681 73.5787 25.1797C73.2903 25.4879 72.9274 25.7282 72.4899 25.9006C72.0557 26.0696 71.5602 26.1541 71.0034 26.1541ZM79.1456 26.1541C78.4065 26.1541 77.7701 25.9867 77.2365 25.652C76.7062 25.3139 76.2985 24.8482 76.0135 24.255C75.7285 23.6617 75.5859 22.9822 75.5859 22.2166C75.5859 21.4411 75.7318 20.7566 76.0234 20.1634C76.3151 19.5668 76.7261 19.1011 77.2564 18.7663C77.7867 18.4316 78.4115 18.2642 79.1307 18.2642C79.7107 18.2642 80.2277 18.3719 80.6818 18.5874C81.1359 18.7995 81.5021 19.0978 81.7805 19.4822C82.0623 19.8667 82.2296 20.3158 82.2827 20.8295H80.8359C80.7564 20.4716 80.5741 20.1634 80.2891 19.9048C80.0073 19.6463 79.6295 19.517 79.1555 19.517C78.7412 19.517 78.3783 19.6264 78.0668 19.8452C77.7585 20.0606 77.5182 20.3688 77.3459 20.7699C77.1735 21.1676 77.0874 21.6383 77.0874 22.1818C77.0874 22.7386 77.1719 23.2192 77.3409 23.6236C77.5099 24.0279 77.7486 24.3411 78.0568 24.5632C78.3684 24.7853 78.7346 24.8963 79.1555 24.8963C79.4373 24.8963 79.6925 24.8449 79.9212 24.7422C80.1532 24.6361 80.3471 24.4853 80.5028 24.2898C80.6619 24.0942 80.773 23.8589 80.8359 23.5838H82.2827C82.2296 24.0777 82.0689 24.5185 81.8004 24.9062C81.532 25.294 81.1723 25.599 80.7216 25.821C80.2741 26.0431 79.7488 26.1541 79.1456 26.1541ZM87.437 18.3636V19.5568H83.2658V18.3636H87.437ZM84.3844 16.5341H85.8709V23.7578C85.8709 24.0462 85.914 24.2633 86.0002 24.4091C86.0864 24.5516 86.1974 24.6494 86.3333 24.7024C86.4725 24.7521 86.6233 24.777 86.7857 24.777C86.905 24.777 87.0094 24.7687 87.0989 24.7521C87.1884 24.7356 87.258 24.7223 87.3077 24.7124L87.5762 25.9403C87.49 25.9735 87.3674 26.0066 87.2083 26.0398C87.0492 26.0762 86.8503 26.0961 86.6117 26.0994C86.2206 26.1061 85.856 26.0365 85.5179 25.8906C85.1799 25.7448 84.9064 25.5194 84.6976 25.2145C84.4888 24.9096 84.3844 24.5268 84.3844 24.0661V16.5341ZM95.6451 26.1491C95.0286 26.1491 94.4784 25.9917 93.9945 25.6768C93.5139 25.3587 93.1361 24.9062 92.861 24.3196C92.5892 23.7296 92.4533 23.022 92.4533 22.1967C92.4533 21.3714 92.5908 20.6655 92.8659 20.0788C93.1444 19.4922 93.5255 19.0431 94.0094 18.7315C94.4933 18.42 95.0418 18.2642 95.655 18.2642C96.129 18.2642 96.5101 18.3438 96.7985 18.5028C97.0901 18.6586 97.3155 18.8409 97.4746 19.0497C97.637 19.2585 97.763 19.4425 97.8525 19.6016H97.9419V15.8182H99.4284V26H97.9767V24.8118H97.8525C97.763 24.9742 97.6337 25.1598 97.4647 25.3686C97.2989 25.5774 97.0703 25.7597 96.7786 25.9155C96.4869 26.0713 96.1091 26.1491 95.6451 26.1491ZM95.9732 24.8814C96.4007 24.8814 96.762 24.7687 97.057 24.5433C97.3553 24.3146 97.5807 23.9981 97.7331 23.5938C97.8889 23.1894 97.9668 22.7187 97.9668 22.1818C97.9668 21.6515 97.8906 21.1875 97.7381 20.7898C97.5856 20.392 97.3619 20.0821 97.0669 19.8601C96.772 19.638 96.4074 19.527 95.9732 19.527C95.5257 19.527 95.1529 19.643 94.8546 19.875C94.5563 20.107 94.3309 20.4235 94.1784 20.8246C94.0293 21.2256 93.9547 21.678 93.9547 22.1818C93.9547 22.6922 94.031 23.1513 94.1834 23.5589C94.3359 23.9666 94.5613 24.2898 94.8596 24.5284C95.1612 24.7637 95.5324 24.8814 95.9732 24.8814ZM103.772 26.169C103.288 26.169 102.851 26.0795 102.46 25.9006C102.069 25.7183 101.759 25.4548 101.53 25.1101C101.305 24.7654 101.192 24.3428 101.192 23.8423C101.192 23.4115 101.275 23.0568 101.441 22.7784C101.606 22.5 101.83 22.2796 102.112 22.1172C102.394 21.9548 102.708 21.8321 103.056 21.7493C103.404 21.6664 103.759 21.6035 104.12 21.5604C104.578 21.5073 104.949 21.4643 105.234 21.4311C105.519 21.3946 105.726 21.3366 105.855 21.2571C105.985 21.1776 106.049 21.0483 106.049 20.8693V20.8345C106.049 20.4003 105.927 20.0639 105.681 19.8253C105.44 19.5866 105.078 19.4673 104.598 19.4673C104.097 19.4673 103.703 19.5784 103.414 19.8004C103.129 20.0192 102.932 20.2628 102.823 20.5312L101.426 20.2131C101.592 19.7491 101.833 19.3745 102.152 19.0895C102.473 18.8011 102.843 18.5923 103.26 18.4631C103.678 18.3305 104.117 18.2642 104.578 18.2642C104.883 18.2642 105.206 18.3007 105.547 18.3736C105.892 18.4432 106.213 18.5724 106.512 18.7614C106.813 18.9503 107.06 19.2204 107.252 19.5717C107.445 19.9197 107.541 20.3722 107.541 20.929V26H106.089V24.956H106.029C105.933 25.1482 105.789 25.3371 105.597 25.5227C105.405 25.7083 105.158 25.8625 104.856 25.9851C104.555 26.1077 104.193 26.169 103.772 26.169ZM104.096 24.9759C104.507 24.9759 104.858 24.8946 105.15 24.7322C105.444 24.5698 105.668 24.3577 105.821 24.0959C105.976 23.8307 106.054 23.5473 106.054 23.2457V22.2614C106.001 22.3144 105.899 22.3641 105.746 22.4105C105.597 22.4536 105.426 22.4917 105.234 22.5249C105.042 22.5547 104.855 22.5829 104.672 22.6094C104.49 22.6326 104.337 22.6525 104.215 22.669C103.926 22.7055 103.663 22.7668 103.424 22.853C103.189 22.9392 103 23.0634 102.858 23.2259C102.718 23.3849 102.649 23.5971 102.649 23.8622C102.649 24.2301 102.785 24.5085 103.056 24.6974C103.328 24.883 103.675 24.9759 104.096 24.9759ZM113.085 18.3636V19.5568H108.914V18.3636H113.085ZM110.033 16.5341H111.519V23.7578C111.519 24.0462 111.562 24.2633 111.649 24.4091C111.735 24.5516 111.846 24.6494 111.982 24.7024C112.121 24.7521 112.272 24.777 112.434 24.777C112.553 24.777 112.658 24.7687 112.747 24.7521C112.837 24.7356 112.906 24.7223 112.956 24.7124L113.225 25.9403C113.138 25.9735 113.016 26.0066 112.857 26.0398C112.698 26.0762 112.499 26.0961 112.26 26.0994C111.869 26.1061 111.504 26.0365 111.166 25.8906C110.828 25.7448 110.555 25.5194 110.346 25.2145C110.137 24.9096 110.033 24.5268 110.033 24.0661V16.5341ZM117.939 26.1541C117.187 26.1541 116.539 25.9934 115.995 25.6719C115.455 25.3471 115.037 24.8913 114.742 24.3047C114.451 23.7147 114.305 23.0237 114.305 22.2315C114.305 21.4493 114.451 20.7599 114.742 20.1634C115.037 19.5668 115.448 19.1011 115.975 18.7663C116.505 18.4316 117.125 18.2642 117.835 18.2642C118.265 18.2642 118.683 18.3355 119.087 18.478C119.492 18.6205 119.855 18.8442 120.176 19.1491C120.498 19.4541 120.751 19.8501 120.937 20.3374C121.122 20.8213 121.215 21.4096 121.215 22.1023V22.6293H115.145V21.5156H119.759C119.759 21.1245 119.679 20.7782 119.52 20.4766C119.361 20.1716 119.137 19.9313 118.849 19.7557C118.564 19.58 118.229 19.4922 117.844 19.4922C117.427 19.4922 117.062 19.5949 116.751 19.8004C116.442 20.0026 116.204 20.2678 116.035 20.5959C115.869 20.9207 115.786 21.2737 115.786 21.6548V22.5249C115.786 23.0353 115.876 23.4695 116.055 23.8274C116.237 24.1854 116.491 24.4588 116.815 24.6477C117.14 24.8333 117.52 24.9261 117.954 24.9261C118.236 24.9261 118.492 24.8864 118.724 24.8068C118.956 24.724 119.157 24.6013 119.326 24.4389C119.495 24.2765 119.624 24.076 119.714 23.8374L121.121 24.0909C121.008 24.5052 120.806 24.8681 120.514 25.1797C120.226 25.4879 119.863 25.7282 119.425 25.9006C118.991 26.0696 118.496 26.1541 117.939 26.1541ZM128.587 20.228L127.24 20.4666C127.183 20.2943 127.094 20.1302 126.971 19.9744C126.852 19.8187 126.689 19.6911 126.484 19.5916C126.278 19.4922 126.021 19.4425 125.713 19.4425C125.292 19.4425 124.941 19.5369 124.659 19.7259C124.378 19.9115 124.237 20.1518 124.237 20.4467C124.237 20.7019 124.331 20.9074 124.52 21.0632C124.709 21.219 125.014 21.3466 125.435 21.446L126.648 21.7244C127.351 21.8868 127.874 22.1371 128.219 22.4751C128.564 22.8132 128.736 23.2524 128.736 23.7926C128.736 24.25 128.603 24.6577 128.338 25.0156C128.076 25.3703 127.71 25.6487 127.24 25.8509C126.772 26.053 126.23 26.1541 125.614 26.1541C124.759 26.1541 124.061 25.9718 123.521 25.6072C122.981 25.2393 122.649 24.7173 122.526 24.0412L123.963 23.8224C124.053 24.197 124.237 24.4804 124.515 24.6726C124.794 24.8615 125.156 24.956 125.604 24.956C126.091 24.956 126.481 24.8549 126.772 24.6527C127.064 24.4472 127.21 24.197 127.21 23.902C127.21 23.6634 127.12 23.4628 126.941 23.3004C126.766 23.138 126.495 23.0154 126.131 22.9325L124.838 22.6491C124.126 22.4867 123.599 22.2282 123.257 21.8736C122.919 21.5189 122.75 21.0698 122.75 20.5263C122.75 20.0755 122.876 19.6811 123.128 19.343C123.38 19.005 123.728 18.7415 124.172 18.5526C124.616 18.3603 125.125 18.2642 125.698 18.2642C126.524 18.2642 127.173 18.4432 127.647 18.8011C128.121 19.1558 128.434 19.6314 128.587 20.228Z" fill="#667085"/>
</g>
<defs>
<filter id="filter0_d_1202_682" x="0" y="0" width="148" height="44" filterUnits="userSpaceOnUse" color-interpolation-filters="sRGB">
<feFlood flood-opacity="0" result="BackgroundImageFix"/>
<feColorMatrix in="SourceAlpha" type="matrix" values="0 0 0 0 0 0 0 0 0 0 0 0 0 0 0 0 0 0 127 0" result="hardAlpha"/>
<feOffset dy="1"/>
<feGaussianBlur stdDeviation="1"/>
<feColorMatrix type="matrix" values="0 0 0 0 0.0627451 0 0 0 0 0.0941176 0 0 0 0 0.156863 0 0 0 0.05 0"/>
<feBlend mode="normal" in2="BackgroundImageFix" result="effect1_dropShadow_1202_682"/>
<feBlend mode="normal" in="SourceGraphic" in2="effect1_dropShadow_1202_682" result="shape"/>
</filter>
</defs>
</svg>
