<svg width="31" height="21" viewBox="0 0 31 21" fill="none" xmlns="http://www.w3.org/2000/svg">
<path d="M23.4679 7.515V1.67C23.4666 1.22749 23.2902 0.803489 22.9773 0.490589C22.6644 0.177688 22.2404 0.00131895 21.7979 0H1.75789C1.31538 0.00131895 0.89138 0.177688 0.578479 0.490589C0.265579 0.803489 0.0892096 1.22749 0.0878906 1.67V18.37C0.0892096 18.8125 0.265579 19.2365 0.578479 19.5494C0.89138 19.8623 1.31538 20.0387 1.75789 20.04H21.7979C22.2404 20.0387 22.6644 19.8623 22.9773 19.5494C23.2902 19.2365 23.4666 18.8125 23.4679 18.37V12.525L30.1479 19.205V0.835L23.4679 7.515ZM18.4579 11.69H13.4479V16.7H10.1079V11.69H5.09789V8.35H10.1079V3.34H13.4479V8.35H18.4579V11.69Z" fill="#FF692E"/>
</svg>
