<svg width="22" height="21" viewBox="0 0 22 21" fill="none" xmlns="http://www.w3.org/2000/svg">
<g clip-path="url(#clip0_448_10120)">
<path d="M4.545 8.962C6.21266 12.2228 8.86521 14.8753 12.126 16.543L14.657 14.012C14.8075 13.8614 14.997 13.7558 15.2042 13.707C15.4114 13.6583 15.6282 13.6683 15.83 13.736C17.1554 14.1716 18.5418 14.393 19.937 14.392C20.2417 14.3931 20.5336 14.5146 20.749 14.73C20.9645 14.9454 21.086 15.2373 21.087 15.542V19.557C21.086 19.8617 20.9645 20.1536 20.749 20.369C20.5336 20.5844 20.2417 20.7059 19.937 20.707C17.3687 20.7071 14.8255 20.2014 12.4527 19.2186C10.0799 18.2358 7.92389 16.7952 6.10782 14.9792C4.29176 13.1631 2.85121 11.0071 1.86843 8.6343C0.885641 6.26147 0.379874 3.7183 0.380005 1.15C0.381059 0.845326 0.502558 0.553431 0.717997 0.337992C0.933436 0.122553 1.22533 0.00105425 1.53 0H5.557C5.86168 0.00105425 6.15357 0.122553 6.36901 0.337992C6.58445 0.553431 6.70595 0.845326 6.707 1.15C6.70504 2.54524 6.92651 3.93179 7.363 5.257C7.42875 5.45975 7.43711 5.67673 7.38716 5.88393C7.33721 6.09114 7.23091 6.28048 7.08 6.431L4.545 8.962Z" fill="#FF692E"/>
</g>
<defs>
<clipPath id="clip0_448_10120">
<rect width="20.708" height="20.708" fill="white" transform="translate(0.380005)"/>
</clipPath>
</defs>
</svg>
