<svg width="24" height="24" viewBox="0 0 24 24" fill="none" xmlns="http://www.w3.org/2000/svg">
<path d="M23.368 2.338C23.3688 1.71976 23.1244 1.12643 22.6883 0.688142C22.2523 0.249854 21.6602 0.00238244 21.042 0H2.338C1.71849 0.00184653 1.12488 0.248764 0.686824 0.686824C0.248764 1.12488 0.00184653 1.71849 0 2.338V16.366C0.00290005 16.9848 0.250282 17.5774 0.688229 18.0146C1.12618 18.4518 1.71918 18.6982 2.338 18.7H18.7L23.38 23.38L23.368 2.338ZM18.7 14.028H4.676V11.69H18.7V14.028ZM18.7 10.521H4.676V8.183H18.7V10.521ZM18.7 7.014H4.676V4.676H18.7V7.014Z" fill="#FF692E"/>
</svg>
