<svg width="31" height="21" viewBox="0 0 31 21" fill="none" xmlns="http://www.w3.org/2000/svg">
<g clip-path="url(#clip0_448_10122)">
<path d="M23.468 7.515V1.67C23.4667 1.22749 23.2903 0.803489 22.9774 0.490589C22.6645 0.177688 22.2405 0.00131895 21.798 0H1.75801C1.31551 0.00131895 0.891502 0.177688 0.578601 0.490589C0.265701 0.803489 0.0893316 1.22749 0.0880127 1.67V18.37C0.0893316 18.8125 0.265701 19.2365 0.578601 19.5494C0.891502 19.8623 1.31551 20.0387 1.75801 20.04H21.798C22.2405 20.0387 22.6645 19.8623 22.9774 19.5494C23.2903 19.2365 23.4667 18.8125 23.468 18.37V12.525L30.148 19.205V0.835L23.468 7.515ZM18.458 11.69H13.448V16.7H10.108V11.69H5.09801V8.35H10.108V3.34H13.448V8.35H18.458V11.69Z" fill="#FF692E"/>
</g>
<defs>
<clipPath id="clip0_448_10122">
<rect width="30.06" height="20.04" fill="white" transform="translate(0.0880127)"/>
</clipPath>
</defs>
</svg>
